<svg width="189" height="237" viewBox="0 0 189 237" fill="none" xmlns="http://www.w3.org/2000/svg">
<path d="M76 161L2.96347 79.5361C0.410632 76.6887 1.13735 72.2118 4.45979 70.3181L124.558 1.8661C131.142 -1.88652 138.768 4.76683 135.943 11.7988L76 161Z" fill="#7957FF" fill-opacity="0.8"/>
<path fill-rule="evenodd" clip-rule="evenodd" d="M124.311 1.43172C131.306 -2.55545 139.409 4.51375 136.407 11.9852L76.1643 161.932L2.59119 79.8699C-0.174385 76.7852 0.612895 71.9352 4.21221 69.8838L124.311 1.43172ZM135.479 11.6124C138.128 5.01994 130.978 -1.21757 124.806 2.30051L4.70739 70.7525C1.66182 72.4884 0.995655 76.5923 3.33576 79.2024L75.8357 160.068L135.479 11.6124Z" fill="#7957FF" fill-opacity="0.8"/>
<path d="M51.2936 224.638L76 161L187.576 161C187.832 161 187.923 161.337 187.703 161.466L62.7866 234.441C56.2467 238.261 48.5523 231.699 51.2936 224.638Z" fill="#7957FF" fill-opacity="0.25"/>
<path fill-rule="evenodd" clip-rule="evenodd" d="M75.6578 160.5H187.576C188.342 160.5 188.616 161.512 187.955 161.898L63.0389 234.873C56.0901 238.932 47.9149 231.959 50.8275 224.457L75.6578 160.5ZM76.3423 161.5L51.7597 224.819C49.1898 231.438 56.4032 237.591 62.5344 234.009L186.653 161.5H76.3423Z" fill="#7957FF" fill-opacity="0.8"/>
<path d="M111.348 73.0342L187.627 160.004C187.967 160.392 187.692 161 187.176 161L76 161L111.348 73.0342Z" fill="#7957FF" fill-opacity="0.5"/>
<path fill-rule="evenodd" clip-rule="evenodd" d="M111.187 72.0928L188.003 159.675C188.626 160.386 188.121 161.5 187.176 161.5H75.2603L111.187 72.0928ZM111.508 73.9755L76.7398 160.5H187.176C187.262 160.5 187.308 160.399 187.251 160.334L111.508 73.9755Z" fill="#7957FF" fill-opacity="0.8"/>
</svg>
